<?xml version="1.0" encoding="UTF-8" standalone="no"?>
<!-- Created with Inkscape (http://www.inkscape.org/) -->

<svg
   width="100%"
   height="100%"
   viewBox="-24 -24 368 368"
   version="1.1"
   id="svg1"
   xml:space="preserve"
   xmlns="http://www.w3.org/2000/svg"
   xmlns:svg="http://www.w3.org/2000/svg"><defs
     id="defs1" /><g
     id="layer1"
     style="display:inline"><g
       id="g141"
       transform="matrix(4.5547313,-0.33914343,0.33914343,4.5547313,-466.11792,-286.30487)"><path
         id="path97"
         style="display:inline;fill:#e88768;fill-opacity:1;stroke-width:0.580203;stroke-linecap:square"
         d="m 132.77743,70.979647 c -2.00985,0.05262 -3.66937,1.586804 -3.87935,3.586344 l -5.2e-4,0.0047 -1.46038,13.891659 -4.31756,-13.289112 c -0.68354,-2.10452 -2.94385,-3.256307 -5.04827,-2.572453 -2.10431,0.68376 -3.25584,2.944002 -2.57194,5.048271 l 0.001,0.0047 4.31654,13.28446 -9.34982,-10.383862 c -1.48046,-1.644463 -4.01376,-1.777271 -5.65805,-0.296623 -1.64431,1.480604 -1.77689,4.013899 -0.29611,5.658053 l 0.003,0.0036 9.3462,10.380245 -12.76511,-5.683374 c -2.02149,-0.900115 -4.3899,0.0092 -5.289601,2.030884 -0.899832,2.021211 0.0092,4.389187 2.030367,5.289083 l 0.0052,0.0021 12.759944,5.681298 H 96.630278 c -2.212801,-2e-4 -4.00668,1.79368 -4.006474,4.00648 8.2e-5,2.2126 1.793876,4.00616 4.006474,4.00596 h 0.0052 13.965032 l -12.762521,5.6813 c -2.021474,0.8999 -2.930546,3.26825 -2.030367,5.2896 0.899894,2.02118 3.267867,2.9302 5.289078,2.03037 h 0.005 l 12.75736,-5.67976 -9.34827,10.38076 c -1.48065,1.64429 -1.34784,4.1776 0.29663,5.65806 1.64422,1.4803 4.17712,1.34749 5.65753,-0.29663 l 0.005,-0.002 9.34517,-10.3787 -4.31809,13.28705 c -0.68385,2.10442 0.46794,4.36473 2.57246,5.04827 2.10426,0.68352 4.3642,-0.46821 5.04775,-2.57246 l 0.003,-0.004 4.31602,-13.28291 1.45986,13.89528 c 0.23113,2.20068 2.2027,3.79719 4.40334,3.56567 2.20048,-0.23139 3.79669,-2.20288 3.56516,-4.40335 l 0.001,-0.005 -1.45985,-13.88855 6.98458,12.099 c 1.10619,1.91654 3.55676,2.57321 5.47305,1.46658 1.91635,-1.10637 2.57277,-3.5569 1.46606,-5.47305 l -0.001,-0.005 -6.98304,-12.09538 11.30267,8.21242 c 1.79001,1.30069 4.29553,0.90389 5.59604,-0.88625 1.30024,-1.79005 0.90323,-4.29521 -0.88676,-5.59553 l -0.003,-0.004 -11.29957,-8.20932 13.66687,2.90525 c 2.16437,0.46009 4.29187,-0.92168 4.75165,-3.08612 0.46011,-2.16421 -0.92138,-4.29162 -3.0856,-4.75165 l -0.005,-0.002 -13.6617,-2.90369 13.66687,-2.90474 c 2.16447,-0.46002 3.54603,-2.58778 3.0856,-4.752157 -0.46027,-2.164014 -2.58761,-3.545224 -4.75165,-3.085083 l -0.005,-5.17e-4 -13.66118,2.904215 11.3037,-8.212418 c 1.79014,-1.300508 2.18694,-3.806035 0.88625,-5.596041 -1.30048,-1.789812 -3.80561,-2.186589 -5.59552,-0.886251 l -0.005,0.0026 -11.30008,8.209835 6.98665,-12.100554 c 1.10663,-1.91629 0.44996,-4.366861 -1.46658,-5.473051 -1.91631,-1.106187 -4.36653,-0.449323 -5.47253,1.467094 l -0.003,0.0036 -6.98355,12.096419 1.46037,-13.895793 c 0.23152,-2.200644 -1.36498,-4.172217 -3.56567,-4.403349 -0.17386,-0.0183 -0.34872,-0.02521 -0.52348,-0.02067 z" /><path
         id="path111"
         style="display:inline;fill:#e88768;fill-opacity:1;stroke-width:0.580203;stroke-linecap:square"
         d="m 126.12563,70.979647 a 4.0061078,4.0061078 0 0 0 -0.52348,0.02067 4.0061078,4.0061078 0 0 0 -3.56515,4.403349 v 0.0047 l 1.45985,13.891142 -6.98613,-12.100554 a 4.0061078,4.0061078 0 0 0 -5.47305,-1.466577 4.0061078,4.0061078 0 0 0 -1.46606,5.472534 l 0.002,0.0047 6.98459,12.096936 -11.30525,-8.213452 a 4.0061078,4.0061078 0 0 0 -5.596044,0.886251 4.0061078,4.0061078 0 0 0 0.886764,5.596041 l 0.004,0.0026 11.30009,8.210351 -13.667386,-2.904732 a 4.0061078,4.0061078 0 0 0 -4.751648,3.0856 4.0061078,4.0061078 0 0 0 3.086116,4.751644 l 0.0052,0.001 13.659628,2.9037 -13.664796,2.9037 a 4.0061078,4.0061078 0 0 0 -3.086116,4.75165 4.0061078,4.0061078 0 0 0 4.752164,3.0856 l 0.0047,0.001 13.660148,-2.9037 -11.30267,8.21087 a 4.0061078,4.0061078 0 0 0 -0.88625,5.59604 4.0061078,4.0061078 0 0 0 5.59604,0.88574 l 0.005,-5.2e-4 11.29854,-8.2088 -6.98562,12.09797 a 4.0061078,4.0061078 0 0 0 1.46606,5.47305 4.0061078,4.0061078 0 0 0 5.47253,-1.46658 l 0.004,-0.003 6.98304,-12.09487 -1.46089,13.89476 a 4.0061078,4.0061078 0 0 0 3.56567,4.40335 4.0061078,4.0061078 0 0 0 4.40283,-3.56567 l 0.002,-0.005 1.45986,-13.88959 4.31653,13.28756 a 4.0061078,4.0061078 0 0 0 5.04827,2.57245 4.0061078,4.0061078 0 0 0 2.57194,-5.04827 v -0.005 l -4.3155,-13.28187 9.34775,10.38282 a 4.0061078,4.0061078 0 0 0 5.65857,0.29663 4.0061078,4.0061078 0 0 0 0.29611,-5.65805 l -0.002,-0.005 -9.34517,-10.3787 12.76305,5.68286 a 4.0061078,4.0061078 0 0 0 5.2896,-2.03088 4.0061078,4.0061078 0 0 0 -2.03037,-5.28909 l -0.004,-0.003 -12.75891,-5.68079 13.97124,5.2e-4 a 4.0061078,4.0061078 0 0 0 4.00647,-4.00647 4.0061078,4.0061078 0 0 0 -4.00647,-4.00596 l -0.005,-10e-4 H 148.30144 L 161.065,97.937978 a 4.0061078,4.0061078 0 0 0 2.03088,-5.289599 4.0061078,4.0061078 0 0 0 -5.2896,-2.030367 l -0.005,0.001 -12.75891,5.680791 9.34879,-10.382829 a 4.0061078,4.0061078 0 0 0 -0.29611,-5.658053 4.0061078,4.0061078 0 0 0 -5.65805,0.296623 l -0.004,0.0031 -9.34568,10.379211 4.31757,-13.287561 a 4.0061078,4.0061078 0 0 0 -2.57246,-5.048271 4.0061078,4.0061078 0 0 0 -5.04775,2.572453 l -0.002,0.0041 -4.31601,13.283944 -1.46038,-13.895793 a 4.0061078,4.0061078 0 0 0 -3.87987,-3.586344 z" /><path
         id="path139"
         style="display:inline;fill:#68c954;fill-opacity:1;stroke-width:0.492256;stroke-linecap:square"
         d="m 126.68416,76.534511 a 3.3988612,3.3988612 0 0 0 -0.44413,0.01754 3.3988612,3.3988612 0 0 0 -3.02475,3.735888 v 0.004 l 1.23857,11.78552 -5.92717,-10.26635 a 3.3988612,3.3988612 0 0 0 -4.64345,-1.244273 3.3988612,3.3988612 0 0 0 -1.24383,4.643007 l 0.002,0.004 5.92586,10.26328 -9.5916,-6.968455 a 3.3988612,3.3988612 0 0 0 -4.74779,0.751913 3.3988612,3.3988612 0 0 0 0.75235,4.747792 l 0.003,0.0022 9.58722,6.965827 -11.59568,-2.464435 a 3.3988612,3.3988612 0 0 0 -4.031394,2.617885 3.3988612,3.3988612 0 0 0 2.618324,4.03139 l 0.004,8.4e-4 11.5891,2.46356 -11.59348,2.46356 a 3.3988612,3.3988612 0 0 0 -2.618327,4.03139 3.3988612,3.3988612 0 0 0 4.031827,2.61789 l 0.004,8.4e-4 11.58954,-2.46355 -9.58941,6.96626 a 3.3988612,3.3988612 0 0 0 -0.75191,4.74779 3.3988612,3.3988612 0 0 0 4.74779,0.75148 l 0.004,-4.4e-4 9.58591,-6.96451 -5.92674,10.26416 a 3.3988612,3.3988612 0 0 0 1.24383,4.64345 3.3988612,3.3988612 0 0 0 4.64301,-1.24428 l 0.003,-0.003 5.92455,-10.26152 -1.23945,11.78859 a 3.3988612,3.3988612 0 0 0 3.02519,3.73589 3.3988612,3.3988612 0 0 0 3.73545,-3.02519 l 0.002,-0.004 1.23858,-11.7842 3.66223,11.27342 a 3.3988612,3.3988612 0 0 0 4.28305,2.18252 3.3988612,3.3988612 0 0 0 2.18208,-4.28305 v -0.004 l -3.66135,-11.2686 7.93081,8.80899 a 3.3988612,3.3988612 0 0 0 4.80085,0.25166 3.3988612,3.3988612 0 0 0 0.25122,-4.8004 l -0.002,-0.004 -7.92863,-8.8055 10.82842,4.82146 a 3.3988612,3.3988612 0 0 0 4.4878,-1.72304 3.3988612,3.3988612 0 0 0 -1.7226,-4.48737 l -0.003,-0.003 -10.82491,-4.81969 11.85348,4.4e-4 a 3.3988612,3.3988612 0 0 0 3.39917,-3.39917 3.3988612,3.3988612 0 0 0 -3.39917,-3.39874 l -0.004,-8.4e-4 h -11.84953 l 10.82886,-4.821005 a 3.3988612,3.3988612 0 0 0 1.72304,-4.4878 3.3988612,3.3988612 0 0 0 -4.4878,-1.722604 l -0.004,8.48e-4 -10.82492,4.819696 7.9317,-8.808998 a 3.3988612,3.3988612 0 0 0 -0.25122,-4.800404 3.3988612,3.3988612 0 0 0 -4.8004,0.251661 l -0.003,0.0026 -7.92906,8.805928 3.66311,-11.27343 a 3.3988612,3.3988612 0 0 0 -2.18252,-4.283053 3.3988612,3.3988612 0 0 0 -4.28261,2.18252 l -0.002,0.0035 -3.66179,11.270361 -1.23901,-11.789466 a 3.3988612,3.3988612 0 0 0 -3.29176,-3.042726 z" /><path
         id="path140"
         style="display:inline;fill:#68c954;fill-opacity:1;stroke-width:0.492256;stroke-linecap:square"
         d="m 132.93531,138.7171 a 3.3988612,3.3988612 0 0 0 0.44413,-0.0175 3.3988612,3.3988612 0 0 0 3.02475,-3.73588 v -0.004 l -1.23857,-11.78552 5.92717,10.26635 a 3.3988612,3.3988612 0 0 0 4.64345,1.24427 3.3988612,3.3988612 0 0 0 1.24383,-4.64301 l -0.002,-0.004 -5.92586,-10.26328 9.5916,6.96846 a 3.3988612,3.3988612 0 0 0 4.74779,-0.75192 3.3988612,3.3988612 0 0 0 -0.75235,-4.74779 l -0.003,-0.002 -9.58722,-6.96582 11.59568,2.46443 a 3.3988612,3.3988612 0 0 0 4.03139,-2.61788 3.3988612,3.3988612 0 0 0 -2.61832,-4.03139 l -0.004,-8.4e-4 -11.5891,-2.46356 11.59348,-2.46356 a 3.3988612,3.3988612 0 0 0 2.61833,-4.03139 3.3988612,3.3988612 0 0 0 -4.03183,-2.617895 l -0.004,-8.4e-4 -11.58954,2.463555 9.58941,-6.966265 a 3.3988612,3.3988612 0 0 0 0.75191,-4.74779 3.3988612,3.3988612 0 0 0 -4.74779,-0.75148 l -0.004,4.4e-4 -9.58591,6.96451 5.92674,-10.26416 a 3.3988612,3.3988612 0 0 0 -1.24383,-4.64345 3.3988612,3.3988612 0 0 0 -4.64301,1.24428 l -0.003,0.003 -5.92455,10.26152 1.23945,-11.78859 a 3.3988612,3.3988612 0 0 0 -3.02519,-3.73589 3.3988612,3.3988612 0 0 0 -3.73545,3.02519 l -0.002,0.004 -1.23858,11.7842 -3.66223,-11.27342 a 3.3988612,3.3988612 0 0 0 -4.28305,-2.18252 3.3988612,3.3988612 0 0 0 -2.18208,4.28305 v 0.004 l 3.66135,11.2686 -7.93081,-8.80899 a 3.3988612,3.3988612 0 0 0 -4.80085,-0.25166 3.3988612,3.3988612 0 0 0 -0.25122,4.8004 l 0.002,0.004 7.92863,8.8055 -10.82842,-4.82146 a 3.3988612,3.3988612 0 0 0 -4.4878,1.72304 3.3988612,3.3988612 0 0 0 1.7226,4.48737 l 0.003,0.003 10.82491,4.819695 -11.85348,-4.4e-4 a 3.3988612,3.3988612 0 0 0 -3.399171,3.39917 3.3988612,3.3988612 0 0 0 3.399171,3.39874 l 0.004,8.4e-4 h 11.84953 l -10.82886,4.821 a 3.3988612,3.3988612 0 0 0 -1.72304,4.4878 3.3988612,3.3988612 0 0 0 4.4878,1.7226 l 0.004,-8.4e-4 10.82492,-4.8197 -7.9317,8.809 a 3.3988612,3.3988612 0 0 0 0.25122,4.8004 3.3988612,3.3988612 0 0 0 4.8004,-0.25166 l 0.003,-0.003 7.92906,-8.80593 -3.66311,11.27343 a 3.3988612,3.3988612 0 0 0 2.18252,4.28306 3.3988612,3.3988612 0 0 0 4.28261,-2.18252 l 0.002,-0.004 3.66179,-11.27036 1.23901,11.78946 a 3.3988612,3.3988612 0 0 0 3.29176,3.04273 z" /><g
         id="g140"><path
           id="path42"
           style="display:inline;fill:#e16880;fill-opacity:1;stroke-width:0.881877;stroke-linecap:square"
           d="m 129.45153,81.342322 a 3.5200478,3.6262869 0 0 0 -3.5202,3.625618 v 6.097819 l -2.47737,-5.565035 a 3.6262869,3.5200478 66 0 0 -0.003,-0.0031 3.6262869,3.5200478 66 0 0 -4.69015,-1.880506 l 5.2e-4,-0.0026 a 3.6262869,3.5200478 66 0 0 -1.7415,4.743896 l 2.47995,5.570203 -4.52634,-4.075721 a 3.6262869,3.5200478 42 0 0 -0.004,-0.0015 3.6262869,3.5200478 42 0 0 -5.0493,0.189653 l -5.2e-4,-0.0026 a 3.6262869,3.5200478 42 0 0 0.33848,5.042069 l 4.53151,4.079855 -5.79345,-1.882056 a 3.6262869,3.5200478 18 0 0 -0.004,0 3.6262869,3.5200478 18 0 0 -4.53615,2.227254 l -0.002,-0.0021 a 3.6262869,3.5200478 18 0 0 2.36006,4.468459 l 5.79861,1.88412 -6.05751,0.63665 a 3.5200478,3.6262869 84 0 0 -0.004,0.002 3.5200478,3.6262869 84 0 0 -3.23753,3.87935 l -0.003,-0.002 a 3.5200478,3.6262869 84 0 0 3.97392,3.12229 l 6.06423,-0.63717 -5.27513,3.04529 a 3.5200478,3.6262869 60 0 0 -0.003,0.003 3.5200478,3.6262869 60 0 0 -1.38028,4.86121 h -0.002 a 3.5200478,3.6262869 60 0 0 4.89995,1.23558 l 5.28082,-3.04891 -3.58066,4.92838 a 3.5200478,3.6262869 36 0 0 -10e-4,0.004 3.5200478,3.6262869 36 0 0 0.71623,5.00177 l -0.003,10e-4 a 3.5200478,3.6262869 36 0 0 4.97954,-0.86403 l 3.58376,-4.93252 -1.26659,5.95778 a 3.5200478,3.6262869 12 0 0 5.2e-4,0.004 3.5200478,3.6262869 12 0 0 2.68872,4.2783 l -0.002,0.002 a 3.5200478,3.6262869 12 0 0 4.19768,-2.81481 l 1.26762,-5.96346 1.26607,5.95726 a 3.6262869,3.5200478 78 0 0 0.002,0.004 3.6262869,3.5200478 78 0 0 4.19664,2.81482 l -5.1e-4,0.002 a 3.6262869,3.5200478 78 0 0 2.68924,-4.27829 l -1.26814,-5.96553 3.58117,4.9289 a 3.6262869,3.5200478 54 0 0 0.003,0.003 3.6262869,3.5200478 54 0 0 4.9785,0.86455 l 5.2e-4,0.002 a 3.6262869,3.5200478 54 0 0 0.71675,-5.0028 l -3.58428,-4.93303 5.27565,3.04581 a 3.6262869,3.5200478 30 0 0 0.004,0.002 3.6262869,3.5200478 30 0 0 4.89944,-1.23507 l 0.002,10e-4 a 3.6262869,3.5200478 30 0 0 -1.37976,-4.86172 l -5.2803,-3.04839 6.05751,0.63665 a 3.6262869,3.5200478 6 0 0 0.005,0 3.6262869,3.5200478 6 0 0 3.97392,-3.12125 l 0.001,5.1e-4 a 3.6262869,3.5200478 6 0 0 -3.23805,-3.88038 l -6.06319,-0.63717 5.79241,-1.88205 a 3.5200478,3.6262869 72 0 0 0.005,-0.002 3.5200478,3.6262869 72 0 0 2.3611,-4.467942 h 5.1e-4 a 3.5200478,3.6262869 72 0 0 -4.53615,-2.227771 l -5.79862,1.884123 4.52634,-4.075721 a 3.5200478,3.6262869 48 0 0 0.004,-0.0041 3.5200478,3.6262869 48 0 0 0.33951,-5.041552 3.5200478,3.6262869 48 0 0 -5.04982,-0.19017 l -4.53151,4.080371 2.47789,-5.565035 a 3.5200478,3.6262869 24 0 0 0.002,-0.0057 3.5200478,3.6262869 24 0 0 -1.73995,-4.743896 h -5.2e-4 a 3.5200478,3.6262869 24 0 0 -4.69067,1.880505 l -2.47995,5.570203 v -6.091102 a 3.5200478,3.6262869 0 0 0 0,-0.0062 3.5200478,3.6262869 0 0 0 -3.51968,-3.625618 z" /><path
           id="path41"
           style="display:inline;fill:#efdd0b;fill-opacity:1;stroke-width:0.823385;stroke-linecap:square"
           d="m 129.45153,84.713175 a 3.5200478,3.1612018 0 0 0 -3.5202,3.161048 v 3.191536 l -1.29604,-2.910933 a 3.1612018,3.5200478 66 0 0 -0.003,-0.0031 3.1612018,3.5200478 66 0 0 -4.5005,-1.455725 l 0.001,-0.0021 a 3.1612018,3.5200478 66 0 0 -1.93063,4.319633 l 1.29811,2.915068 -2.36781,-2.131653 a 3.1612018,3.5200478 42 0 0 -0.004,-0.0016 3.1612018,3.5200478 42 0 0 -4.7041,0.500744 l 5.1e-4,-0.0021 a 3.1612018,3.5200478 42 0 0 -0.007,4.730977 l 2.37143,2.135271 -3.02979,-0.984436 a 3.1612018,3.5200478 18 0 0 -0.004,5.16e-4 3.1612018,3.5200478 18 0 0 -4.09381,2.370399 l -10e-4,-0.002 a 3.1612018,3.5200478 18 0 0 1.91822,4.3248 l 3.03548,0.98599 -3.1688,0.33331 a 3.5200478,3.1612018 84 0 0 -0.004,0.002 3.5200478,3.1612018 84 0 0 -2.77606,3.83078 l -10e-4,-0.002 a 3.5200478,3.1612018 84 0 0 3.51141,3.17086 l 3.17397,-0.33383 -2.759,1.59319 a 3.5200478,3.1612018 60 0 0 -0.003,0.003 3.5200478,3.1612018 60 0 0 -0.97772,4.62866 l -0.002,-5.2e-4 a 3.5200478,3.1612018 60 0 0 4.4974,1.46864 l 2.76417,-1.59576 -1.87275,2.57762 a 3.5200478,3.1612018 36 0 0 -0.001,0.004 3.5200478,3.1612018 36 0 0 0.98909,4.62556 l -0.002,5.2e-4 a 3.5200478,3.1612018 36 0 0 4.70565,-0.48783 l 1.87586,-2.58176 -0.66249,3.11609 a 3.5200478,3.1612018 12 0 0 5.1e-4,0.004 3.5200478,3.1612018 12 0 0 2.78536,3.82354 l -0.002,10e-4 a 3.5200478,3.1612018 12 0 0 4.10104,-2.35955 l 0.66353,-3.12177 0.66249,3.11661 a 3.1612018,3.5200478 78 0 0 0.002,0.004 3.1612018,3.5200478 78 0 0 4.10001,2.36007 l -0.001,10e-4 a 3.1612018,3.5200478 78 0 0 2.78639,-3.82354 l -0.66353,-3.12177 1.87276,2.57762 a 3.1612018,3.5200478 54 0 0 0.003,0.003 3.1612018,3.5200478 54 0 0 4.70514,0.48834 l 5.1e-4,0.002 a 3.1612018,3.5200478 54 0 0 0.99013,-4.62659 l -1.87586,-2.58227 2.75901,1.59318 a 3.1612018,3.5200478 30 0 0 0.004,0.002 3.1612018,3.5200478 30 0 0 4.49688,-1.46709 l 0.001,5.1e-4 a 3.1612018,3.5200478 30 0 0 -0.9772,-4.62917 l -2.76469,-1.59629 3.16931,0.33332 a 3.1612018,3.5200478 6 0 0 0.005,5.1e-4 3.1612018,3.5200478 6 0 0 3.51141,-3.16983 3.1612018,3.5200478 6 0 0 -2.77554,-3.83129 l -3.17396,-0.33383 3.0303,-0.98444 a 3.5200478,3.1612018 72 0 0 0.005,-0.002 3.5200478,3.1612018 72 0 0 1.91874,-4.32429 l -5.1e-4,5.2e-4 a 3.5200478,3.1612018 72 0 0 -4.09381,-2.371436 l -3.03496,0.985987 2.3673,-2.131653 a 3.5200478,3.1612018 48 0 0 0.004,-0.0036 3.5200478,3.1612018 48 0 0 -0.006,-4.73046 h -5.2e-4 a 3.5200478,3.1612018 48 0 0 -4.70462,-0.501262 l -2.37143,2.135271 1.29605,-2.910417 a 3.5200478,3.1612018 24 0 0 0.002,-0.0047 3.5200478,3.1612018 24 0 0 -1.92909,-4.319116 h -5.1e-4 a 3.5200478,3.1612018 24 0 0 -4.50154,1.455208 l -1.29811,2.915585 V 87.87939 a 3.5200478,3.1612018 0 0 0 0,-0.0052 3.5200478,3.1612018 0 0 0 -3.51968,-3.161048 z" /><path
           id="path40"
           style="display:inline;fill:#5abce9;fill-opacity:1;stroke-width:0.684954;stroke-linecap:square"
           d="m 129.45153,87.311466 a 2.7475256,2.8026987 0 0 0 -2.74764,2.802413 v 4.586284 l -1.86345,-4.185274 a 2.8026987,2.7475256 66 0 0 -0.002,-0.0036 2.8026987,2.7475256 66 0 0 -3.64938,-1.442806 v -5.17e-4 a 2.8026987,2.7475256 66 0 0 -1.37046,3.677295 l 1.86552,4.189925 -3.40445,-3.065446 a 2.8026987,2.7475256 42 0 0 -0.003,-0.0026 2.8026987,2.7475256 42 0 0 -3.92069,0.166398 l -5.2e-4,-10e-4 a 2.8026987,2.7475256 42 0 0 0.24392,3.917591 l 3.40754,3.068031 -4.35632,-1.415419 a 2.8026987,2.7475256 18 0 0 -0.004,-10e-4 2.8026987,2.7475256 18 0 0 -3.51399,1.746669 h -5.2e-4 a 2.8026987,2.7475256 18 0 0 1.81591,3.47885 l 4.36149,1.41697 -4.55631,0.47904 a 2.7475256,2.8026987 84 0 0 -0.004,5.2e-4 2.7475256,2.8026987 84 0 0 -2.5001,3.02462 l -5.2e-4,5.2e-4 a 2.7475256,2.8026987 84 0 0 3.07423,2.43964 l 4.56044,-0.47956 -3.96719,2.29082 a 2.7475256,2.8026987 60 0 0 -0.004,0.002 2.7475256,2.8026987 60 0 0 -1.05316,3.78064 2.7475256,2.8026987 60 0 0 3.8008,0.97876 l 3.97133,-2.29289 -2.69286,3.70624 a 2.7475256,2.8026987 36 0 0 -0.003,0.003 2.7475256,2.8026987 36 0 0 0.57568,3.88193 v 10e-4 a 2.7475256,2.8026987 36 0 0 3.87004,-0.65216 l 2.69545,-3.70985 -0.9524,4.48086 a 2.7475256,2.8026987 12 0 0 -5.2e-4,0.004 2.7475256,2.8026987 12 0 0 2.10427,3.31246 v 5.1e-4 a 2.7475256,2.8026987 12 0 0 3.2706,-2.16989 l 0.95343,-4.48551 0.9524,4.48086 a 2.8026987,2.7475256 78 0 0 0,0.004 2.8026987,2.7475256 78 0 0 3.27008,2.1699 l 5.2e-4,5.1e-4 a 2.8026987,2.7475256 78 0 0 2.1053,-3.31246 l -0.95343,-4.48551 2.69285,3.70623 a 2.8026987,2.7475256 54 0 0 0.002,0.004 2.8026987,2.7475256 54 0 0 3.87005,0.65215 h 5.2e-4 a 2.8026987,2.7475256 54 0 0 0.57619,-3.88245 l -2.69544,-3.70985 3.9672,2.2903 a 2.8026987,2.7475256 30 0 0 0.004,0.003 2.8026987,2.7475256 30 0 0 3.80029,-0.97823 v -5.2e-4 a 2.8026987,2.7475256 30 0 0 -1.05317,-3.78065 l -3.97185,-2.2934 4.55683,0.47904 a 2.8026987,2.7475256 6 0 0 0.005,0.001 2.8026987,2.7475256 6 0 0 3.07423,-2.43913 l -5.2e-4,-5.2e-4 a 2.8026987,2.7475256 6 0 0 -2.49958,-3.02565 l -4.56045,-0.47956 4.35684,-1.41542 a 2.7475256,2.8026987 72 0 0 0.005,-0.001 2.7475256,2.8026987 72 0 0 1.81643,-3.47834 l -5.2e-4,-5.2e-4 a 2.7475256,2.8026987 72 0 0 -3.514,-1.747695 l -4.36149,1.416965 3.40445,-3.064927 a 2.7475256,2.8026987 48 0 0 0.004,-0.0031 2.7475256,2.8026987 48 0 0 0.24443,-3.916557 l -5.1e-4,-5.17e-4 a 2.7475256,2.8026987 48 0 0 -3.92121,-0.166915 l -3.40755,3.068547 1.86294,-4.184758 a 2.7475256,2.8026987 24 0 0 0.002,-0.0047 2.7475256,2.8026987 24 0 0 -1.36995,-3.677295 2.7475256,2.8026987 24 0 0 -3.6499,1.44229 l -1.86552,4.190442 v -4.58215 a 2.7475256,2.8026987 0 0 0 0,-0.0047 2.7475256,2.8026987 0 0 0 -2.74712,-2.802413 z" /><path
           id="path2"
           style="display:inline;fill:#695ea3;fill-opacity:1;stroke-width:0.599057;stroke-linecap:square"
           d="m 129.45153,92.087402 a 2.7475256,2.1438282 0 0 0 -2.74764,2.143539 v 0.468188 l -0.18913,-0.42478 a 2.1438282,2.7475256 66 0 0 -0.003,-0.0026 2.1438282,2.7475256 66 0 0 -3.38171,-0.840775 2.1438282,2.7475256 66 0 0 -1.63659,3.075264 l 0.1912,0.429431 -0.34675,-0.312125 a 2.1438282,2.7475256 42 0 0 -0.004,-0.0016 2.1438282,2.7475256 42 0 0 -3.43132,0.607198 2.1438282,2.7475256 42 0 0 -0.24443,3.475248 l 0.3483,0.31367 -0.44235,-0.14366 a 2.1438282,2.7475256 18 0 0 -0.004,5.2e-4 2.1438282,2.7475256 18 0 0 -2.88768,1.95027 l 10e-4,-0.002 a 2.1438282,2.7475256 18 0 0 1.18908,3.27577 l 0.44648,0.14521 -0.46302,0.0486 a 2.7475256,2.1438282 84 0 0 -0.004,0.002 2.7475256,2.1438282 84 0 0 -1.84433,2.95589 2.7475256,2.1438282 84 0 0 2.41898,2.50734 l 0.46612,-0.0491 -0.40256,0.23254 a 2.7475256,2.1438282 60 0 0 -0.003,0.003 2.7475256,2.1438282 60 0 0 -0.48266,3.45096 v -10e-4 a 2.7475256,2.1438282 60 0 0 3.23029,1.30793 l 0.40618,-0.23462 -0.27337,0.37622 a 2.7475256,2.1438282 36 0 0 -10e-4,0.004 2.7475256,2.1438282 36 0 0 0.96221,3.34914 2.7475256,2.1438282 36 0 0 3.48196,-0.1204 l 0.27544,-0.37931 -0.0966,0.45527 a 2.7475256,2.1438282 12 0 0 5.2e-4,0.004 2.7475256,2.1438282 12 0 0 2.24017,2.66702 2.7475256,2.1438282 12 0 0 3.13366,-1.52497 l 0.0977,-0.45888 0.0966,0.45527 a 2.1438282,2.7475256 78 0 0 0.002,0.004 2.1438282,2.7475256 78 0 0 3.13263,1.52601 l -0.001,-5.2e-4 a 2.1438282,2.7475256 78 0 0 2.24224,-2.66805 l -0.0971,-0.45786 0.27285,0.37569 a 2.1438282,2.7475256 54 0 0 0.003,0.003 2.1438282,2.7475256 54 0 0 3.48248,0.11937 h -10e-4 a 2.1438282,2.7475256 54 0 0 0.96324,-3.34915 l -0.27595,-0.37982 0.4036,0.23306 a 2.1438282,2.7475256 30 0 0 0.004,0.001 2.1438282,2.7475256 30 0 0 3.22926,-1.30638 2.1438282,2.7475256 30 0 0 -0.48265,-3.45147 l -0.4067,-0.23461 0.46354,0.0486 a 2.1438282,2.7475256 6 0 0 0.004,-5.2e-4 2.1438282,2.7475256 6 0 0 2.41898,-2.50837 l -5.2e-4,0.001 a 2.1438282,2.7475256 6 0 0 -1.84518,-2.9568 l -0.46612,-0.0491 0.44235,-0.14366 a 2.7475256,2.1438282 72 0 0 0.003,-0.002 2.7475256,2.1438282 72 0 0 1.18959,-3.27473 2.7475256,2.1438282 72 0 0 -2.88716,-1.95027 l -0.44597,0.14469 0.34572,-0.31109 a 2.7475256,2.1438282 48 0 0 0.002,-0.003 2.7475256,2.1438282 48 0 0 -0.24547,-3.475756 l 0.001,5.17e-4 a 2.7475256,2.1438282 48 0 0 -3.43184,-0.607715 l -0.34881,0.313676 0.18965,-0.425297 a 2.7475256,2.1438282 24 0 0 0.001,-0.0031 2.7475256,2.1438282 24 0 0 -1.63762,-3.075781 2.7475256,2.1438282 24 0 0 -3.38171,0.840775 l -0.1912,0.429432 v -0.466122 a 2.7475256,2.1438282 0 0 0 0,-0.0036 2.7475256,2.1438282 0 0 0 -2.74712,-2.143539 z" /></g></g></g></svg>
