<?xml version="1.0" encoding="UTF-8" standalone="no"?>
<!-- Created with Inkscape (http://www.inkscape.org/) -->

<svg
   width="320"
   height="320"
   viewBox="0 0 319.99999 320"
   version="1.1"
   id="svg1"
   xml:space="preserve"
   inkscape:version="1.4.2 (f4327f4, 2025-05-13)"
   sodipodi:docname="katamari.svg"
   xmlns:inkscape="http://www.inkscape.org/namespaces/inkscape"
   xmlns:sodipodi="http://sodipodi.sourceforge.net/DTD/sodipodi-0.dtd"
   xmlns="http://www.w3.org/2000/svg"
   xmlns:svg="http://www.w3.org/2000/svg"><sodipodi:namedview
     id="namedview1"
     pagecolor="#ffffff"
     bordercolor="#000000"
     borderopacity="0.25"
     inkscape:showpageshadow="2"
     inkscape:pageopacity="0.0"
     inkscape:pagecheckerboard="0"
     inkscape:deskcolor="#d1d1d1"
     inkscape:document-units="mm"
     inkscape:zoom="1.853635"
     inkscape:cx="244.65442"
     inkscape:cy="175.60091"
     inkscape:window-width="1920"
     inkscape:window-height="1129"
     inkscape:window-x="-8"
     inkscape:window-y="-8"
     inkscape:window-maximized="1"
     inkscape:current-layer="layer1" /><defs
     id="defs1" /><g
     inkscape:label="Layer 1"
     inkscape:groupmode="layer"
     id="layer1"
     transform="translate(-75.758639,-118.88232)"><g
       id="g62"
       inkscape:label="rotate-bottom"
       transform="matrix(5.1711927,0,0,5.1711927,-192.90332,-307.45322)"><g
         id="g51"><path
           id="path48"
           style="display:inline;opacity:1;fill:#f5a9b8;fill-opacity:1;stroke:none;stroke-width:0.526122;stroke-linecap:square;stroke-opacity:1"
           d="m 109.08129,108.86347 a 9.6897265,8.3005461 3.6273881 0 0 -7.61922,-2.33647 c -4.237646,5.45246 -4.642482,10.89547 -1.21417,16.32864 a 9.6897265,8.3005461 3.6273881 0 0 9.26196,-2.24571 9.6897265,8.3005461 3.6273881 0 0 -0.42857,-11.74646 z" /><path
           id="path49"
           style="display:inline;opacity:1;fill:#ffffff;fill-opacity:1;stroke:none;stroke-width:0.526122;stroke-linecap:square;stroke-opacity:1"
           d="m 104.95587,106.825 a 17.367577,17.367577 0 0 1 2.04173,8.17005 17.367577,17.367577 0 0 1 -1.86862,7.83673 9.6897265,8.3005461 3.6273881 0 0 4.38113,-2.22209 9.6897265,8.3005461 3.6273881 0 0 -0.42891,-11.74605 9.6897265,8.3005461 3.6273881 0 0 -4.12533,-2.03864 z" /><path
           id="path50"
           style="display:inline;opacity:1;fill:#f5a9b8;fill-opacity:1;stroke:none;stroke-width:0.526122;stroke-linecap:square;stroke-opacity:1"
           d="m 107.39965,107.75001 a 17.177727,17.177727 0 0 1 1.50688,7.03523 17.177727,17.177727 0 0 1 -1.62832,7.30136 9.6897265,8.3005461 3.6273881 0 0 2.2319,-1.47691 9.6897265,8.3005461 3.6273881 0 0 -0.42891,-11.74605 9.6897265,8.3005461 3.6273881 0 0 -1.68155,-1.11363 z" /><path
           id="path51"
           style="display:inline;opacity:1;fill:#5bcefa;fill-opacity:1;stroke:none;stroke-width:0.526122;stroke-linecap:square;stroke-opacity:1"
           d="m 109.85273,109.57419 a 16.563086,16.563086 0 0 1 1.21439,6.22546 16.563086,16.563086 0 0 1 -0.37517,3.50676 9.6897265,8.3005461 3.6273881 0 0 -0.83922,-9.73222 z" /></g><g
         id="g48"
         transform="rotate(-62.624104,85.277063,114.86217)"><path
           id="path42"
           style="display:inline;opacity:1;fill:#f5a9b8;fill-opacity:1;stroke:none;stroke-width:0.526122;stroke-linecap:square;stroke-opacity:1"
           d="m 109.08129,108.86347 a 9.6897265,8.3005461 3.6273881 0 0 -7.61922,-2.33647 c -4.237646,5.45246 -4.642482,10.89547 -1.21417,16.32864 a 9.6897265,8.3005461 3.6273881 0 0 9.26196,-2.24571 9.6897265,8.3005461 3.6273881 0 0 -0.42857,-11.74646 z" /><path
           id="path45"
           style="display:inline;opacity:1;fill:#ffffff;fill-opacity:1;stroke:none;stroke-width:0.526122;stroke-linecap:square;stroke-opacity:1"
           d="m 104.95587,106.825 a 17.367577,17.367577 0 0 1 2.04173,8.17005 17.367577,17.367577 0 0 1 -1.86862,7.83673 9.6897265,8.3005461 3.6273881 0 0 4.38113,-2.22209 9.6897265,8.3005461 3.6273881 0 0 -0.42891,-11.74605 9.6897265,8.3005461 3.6273881 0 0 -4.12533,-2.03864 z" /><path
           id="path44"
           style="display:inline;opacity:1;fill:#f5a9b8;fill-opacity:1;stroke:none;stroke-width:0.526122;stroke-linecap:square;stroke-opacity:1"
           d="m 107.39965,107.75001 a 17.177727,17.177727 0 0 1 1.50688,7.03523 17.177727,17.177727 0 0 1 -1.62832,7.30136 9.6897265,8.3005461 3.6273881 0 0 2.2319,-1.47691 9.6897265,8.3005461 3.6273881 0 0 -0.42891,-11.74605 9.6897265,8.3005461 3.6273881 0 0 -1.68155,-1.11363 z" /><path
           id="path46"
           style="display:inline;opacity:1;fill:#5bcefa;fill-opacity:1;stroke:none;stroke-width:0.526122;stroke-linecap:square;stroke-opacity:1"
           d="m 109.85273,109.57419 a 16.563086,16.563086 0 0 1 1.21439,6.22546 16.563086,16.563086 0 0 1 -0.37517,3.50676 9.6897265,8.3005461 3.6273881 0 0 -0.83922,-9.73222 z" /></g><g
         id="g55"
         transform="matrix(-0.99929331,0.03758798,0.03758798,0.99929331,161.39279,-3.7674338)"><path
           id="path52"
           style="display:inline;opacity:1;fill:#f5a9b8;fill-opacity:1;stroke:none;stroke-width:0.526122;stroke-linecap:square;stroke-opacity:1"
           d="m 109.08129,108.86347 a 9.6897265,8.3005461 3.6273881 0 0 -7.61922,-2.33647 c -4.237646,5.45246 -4.642482,10.89547 -1.21417,16.32864 a 9.6897265,8.3005461 3.6273881 0 0 9.26196,-2.24571 9.6897265,8.3005461 3.6273881 0 0 -0.42857,-11.74646 z" /><path
           id="path53"
           style="display:inline;opacity:1;fill:#ffffff;fill-opacity:1;stroke:none;stroke-width:0.526122;stroke-linecap:square;stroke-opacity:1"
           d="m 104.95587,106.825 a 17.367577,17.367577 0 0 1 2.04173,8.17005 17.367577,17.367577 0 0 1 -1.86862,7.83673 9.6897265,8.3005461 3.6273881 0 0 4.38113,-2.22209 9.6897265,8.3005461 3.6273881 0 0 -0.42891,-11.74605 9.6897265,8.3005461 3.6273881 0 0 -4.12533,-2.03864 z" /><path
           id="path54"
           style="display:inline;opacity:1;fill:#f5a9b8;fill-opacity:1;stroke:none;stroke-width:0.526122;stroke-linecap:square;stroke-opacity:1"
           d="m 107.39965,107.75001 a 17.177727,17.177727 0 0 1 1.50688,7.03523 17.177727,17.177727 0 0 1 -1.62832,7.30136 9.6897265,8.3005461 3.6273881 0 0 2.2319,-1.47691 9.6897265,8.3005461 3.6273881 0 0 -0.42891,-11.74605 9.6897265,8.3005461 3.6273881 0 0 -1.68155,-1.11363 z" /><path
           id="path55"
           style="display:inline;opacity:1;fill:#5bcefa;fill-opacity:1;stroke:none;stroke-width:0.526122;stroke-linecap:square;stroke-opacity:1"
           d="m 109.85273,109.57419 a 16.563086,16.563086 0 0 1 1.21439,6.22546 16.563086,16.563086 0 0 1 -0.37517,3.50676 9.6897265,8.3005461 3.6273881 0 0 -0.83922,-9.73222 z" /></g><g
         id="g59"
         transform="rotate(71.733262,86.427434,114.11949)"><path
           id="path56"
           style="display:inline;opacity:1;fill:#f5a9b8;fill-opacity:1;stroke:none;stroke-width:0.526122;stroke-linecap:square;stroke-opacity:1"
           d="m 109.08129,108.86347 a 9.6897265,8.3005461 3.6273881 0 0 -7.61922,-2.33647 c -4.237646,5.45246 -4.642482,10.89547 -1.21417,16.32864 a 9.6897265,8.3005461 3.6273881 0 0 9.26196,-2.24571 9.6897265,8.3005461 3.6273881 0 0 -0.42857,-11.74646 z" /><path
           id="path57"
           style="display:inline;opacity:1;fill:#ffffff;fill-opacity:1;stroke:none;stroke-width:0.526122;stroke-linecap:square;stroke-opacity:1"
           d="m 104.95587,106.825 a 17.367577,17.367577 0 0 1 2.04173,8.17005 17.367577,17.367577 0 0 1 -1.86862,7.83673 9.6897265,8.3005461 3.6273881 0 0 4.38113,-2.22209 9.6897265,8.3005461 3.6273881 0 0 -0.42891,-11.74605 9.6897265,8.3005461 3.6273881 0 0 -4.12533,-2.03864 z" /><path
           id="path58"
           style="display:inline;opacity:1;fill:#f5a9b8;fill-opacity:1;stroke:none;stroke-width:0.526122;stroke-linecap:square;stroke-opacity:1"
           d="m 107.39965,107.75001 a 17.177727,17.177727 0 0 1 1.50688,7.03523 17.177727,17.177727 0 0 1 -1.62832,7.30136 9.6897265,8.3005461 3.6273881 0 0 2.2319,-1.47691 9.6897265,8.3005461 3.6273881 0 0 -0.42891,-11.74605 9.6897265,8.3005461 3.6273881 0 0 -1.68155,-1.11363 z" /><path
           id="path59"
           style="display:inline;opacity:1;fill:#5bcefa;fill-opacity:1;stroke:none;stroke-width:0.526122;stroke-linecap:square;stroke-opacity:1"
           d="m 109.85273,109.57419 a 16.563086,16.563086 0 0 1 1.21439,6.22546 16.563086,16.563086 0 0 1 -0.37517,3.50676 9.6897265,8.3005461 3.6273881 0 0 -0.83922,-9.73222 z" /></g></g><path
       id="path2"
       style="display:inline;fill:#5bcefa;fill-opacity:1;stroke:none;stroke-width:0.499229;stroke-linecap:square"
       d="M 107.02018,114.12202 A 23.243984,23.243984 0 0 1 83.776192,137.366 23.243984,23.243984 0 0 1 60.532207,114.12202 23.243984,23.243984 0 0 1 83.776192,90.878033 23.243984,23.243984 0 0 1 107.02018,114.12202 Z"
       inkscape:label="ball"
       transform="matrix(5.1711927,0,0,5.1711927,-192.90332,-307.45322)" /><path
       id="path1"
       style="display:inline;opacity:0.5;fill:#ce3a58;fill-opacity:1;stroke:none;stroke-width:0.499229;stroke-linecap:square"
       d="M 71.377039,94.461418 A 23.243984,23.243984 0 0 0 60.532222,114.12223 23.243984,23.243984 0 0 0 83.776282,137.36578 23.243984,23.243984 0 0 0 104.48458,124.67869 23.243984,23.243984 0 0 1 92.085335,128.26246 23.243984,23.243984 0 0 1 68.841276,105.0184 23.243984,23.243984 0 0 1 71.377039,94.461418 Z"
       inkscape:label="shadow"
       transform="matrix(5.1711927,0,0,5.1711927,-192.90332,-307.45322)" /><g
       id="g61"
       inkscape:label="rotate-top"
       transform="matrix(5.1711927,0,0,5.1711927,-192.90332,-307.45322)"><g
         id="g15"
         style="display:inline"><ellipse
           style="display:inline;opacity:1;fill:#f5a9b8;fill-opacity:1;stroke:none;stroke-width:0.659112;stroke-linecap:square;stroke-opacity:1"
           id="path3"
           cx="76.731613"
           cy="112.85761"
           rx="9.4650116"
           ry="9.8985233"
           inkscape:label="Pink1" /><ellipse
           style="display:inline;opacity:1;fill:#ffffff;fill-opacity:1;stroke:none;stroke-width:0.828752;stroke-linecap:square;stroke-opacity:1"
           id="path4"
           cx="75.324875"
           cy="112.89847"
           rx="7.4036551"
           ry="7.8068914"
           inkscape:label="White1" /><ellipse
           style="display:inline;opacity:1;fill:#f5a9b8;fill-opacity:1;stroke:none;stroke-width:1.72679;stroke-linecap:square;stroke-opacity:1"
           id="path5"
           cx="74.134201"
           cy="112.92014"
           rx="5.7480187"
           ry="6.0152788"
           inkscape:label="Pink2" /><ellipse
           style="display:inline;opacity:1;fill:#5bcefa;fill-opacity:1;stroke:none;stroke-width:0.845936;stroke-linecap:square;stroke-opacity:1"
           id="path6"
           cx="72.803261"
           cy="112.57301"
           rx="3.9846518"
           ry="3.8830469" /></g><g
         id="g14"
         style="display:inline"><path
           id="path7"
           style="display:inline;opacity:1;fill:#f5a9b8;fill-opacity:1;stroke:none;stroke-width:0.549746;stroke-linecap:square;stroke-opacity:1"
           d="m 98.242582,92.563859 a 9.3448992,9.3971062 0 0 0 -7.060034,3.240112 c 1.274666,7.370809 5.188146,12.134529 11.740372,14.290599 a 9.3448992,9.3971062 0 0 0 4.66431,-8.13335 9.3448992,9.3971062 0 0 0 -9.344648,-9.397361 z" /><path
           id="path13"
           style="display:inline;opacity:1;fill:#ffffff;fill-opacity:1;stroke:none;stroke-width:0.549746;stroke-linecap:square;stroke-opacity:1"
           d="m 98.242582,92.563859 a 9.3448992,9.3971062 0 0 0 -4.266406,1.036113 19.81205,19.81205 0 0 0 11.878864,13.811558 9.3448992,9.3971062 0 0 0 1.73219,-5.45031 9.3448992,9.3971062 0 0 0 -9.344648,-9.397361 z" /><path
           id="path12"
           style="display:inline;opacity:1;fill:#f5a9b8;fill-opacity:1;stroke:none;stroke-width:0.549746;stroke-linecap:square;stroke-opacity:1"
           d="m 98.242582,92.563859 a 9.3448992,9.3971062 0 0 0 -0.484725,0.0124 14.979843,14.979843 0 0 0 9.726543,10.776091 9.3448992,9.3971062 0 0 0 0.10283,-1.39113 9.3448992,9.3971062 0 0 0 -9.344648,-9.397363 z" /><path
           id="path10"
           style="display:inline;opacity:1;fill:#5bcefa;fill-opacity:1;stroke:none;stroke-width:0.549746;stroke-linecap:square;stroke-opacity:1"
           d="m 100.71633,92.899239 a 9.6040125,9.6040125 0 0 0 6.37739,6.049243 9.3448992,9.3971062 0 0 0 -6.37739,-6.049243 z" /></g><g
         id="g18"
         transform="matrix(0.37045198,-0.94079369,0.90673424,0.38436718,-52.19269,146.50728)"
         style="display:inline"><path
           id="path15"
           style="display:inline;opacity:1;fill:#f5a9b8;fill-opacity:1;stroke:none;stroke-width:0.549746;stroke-linecap:square;stroke-opacity:1"
           d="m 98.242582,92.563859 a 9.3448992,9.3971062 0 0 0 -7.060034,3.240112 c 1.274666,7.370809 5.188146,12.134529 11.740372,14.290599 a 9.3448992,9.3971062 0 0 0 4.66431,-8.13335 9.3448992,9.3971062 0 0 0 -9.344648,-9.397361 z" /><path
           id="path16"
           style="display:inline;opacity:1;fill:#ffffff;fill-opacity:1;stroke:none;stroke-width:0.549746;stroke-linecap:square;stroke-opacity:1"
           d="m 98.242582,92.563859 a 9.3448992,9.3971062 0 0 0 -4.266406,1.036113 19.81205,19.81205 0 0 0 11.878864,13.811558 9.3448992,9.3971062 0 0 0 1.73219,-5.45031 9.3448992,9.3971062 0 0 0 -9.344648,-9.397361 z" /><path
           id="path17"
           style="display:inline;opacity:1;fill:#f5a9b8;fill-opacity:1;stroke:none;stroke-width:0.549746;stroke-linecap:square;stroke-opacity:1"
           d="m 98.242582,92.563859 a 9.3448992,9.3971062 0 0 0 -0.484725,0.0124 14.979843,14.979843 0 0 0 9.726543,10.776091 9.3448992,9.3971062 0 0 0 0.10283,-1.39113 9.3448992,9.3971062 0 0 0 -9.344648,-9.397363 z" /><path
           id="path18"
           style="display:inline;opacity:1;fill:#5bcefa;fill-opacity:1;stroke:none;stroke-width:0.549746;stroke-linecap:square;stroke-opacity:1"
           d="m 100.71633,92.899239 a 9.6040125,9.6040125 0 0 0 6.37739,6.049243 9.3448992,9.3971062 0 0 0 -6.37739,-6.049243 z" /></g><g
         id="g22"
         transform="matrix(-0.91216144,0.43622119,-0.40180989,-0.89914066,205.41655,182.44323)"
         style="display:inline"><path
           id="path19"
           style="display:inline;opacity:1;fill:#f5a9b8;fill-opacity:1;stroke:none;stroke-width:0.549746;stroke-linecap:square;stroke-opacity:1"
           d="m 98.242582,92.563859 a 9.3448992,9.3971062 0 0 0 -7.060034,3.240112 c 1.274666,7.370809 5.188146,12.134529 11.740372,14.290599 a 9.3448992,9.3971062 0 0 0 4.66431,-8.13335 9.3448992,9.3971062 0 0 0 -9.344648,-9.397361 z" /><path
           id="path20"
           style="display:inline;opacity:1;fill:#ffffff;fill-opacity:1;stroke:none;stroke-width:0.549746;stroke-linecap:square;stroke-opacity:1"
           d="m 98.242582,92.563859 a 9.3448992,9.3971062 0 0 0 -4.266406,1.036113 19.81205,19.81205 0 0 0 11.878864,13.811558 9.3448992,9.3971062 0 0 0 1.73219,-5.45031 9.3448992,9.3971062 0 0 0 -9.344648,-9.397361 z" /><path
           id="path21"
           style="display:inline;opacity:1;fill:#f5a9b8;fill-opacity:1;stroke:none;stroke-width:0.549746;stroke-linecap:square;stroke-opacity:1"
           d="m 98.242582,92.563859 a 9.3448992,9.3971062 0 0 0 -0.484725,0.0124 14.979843,14.979843 0 0 0 9.726543,10.776091 9.3448992,9.3971062 0 0 0 0.10283,-1.39113 9.3448992,9.3971062 0 0 0 -9.344648,-9.397363 z" /><path
           id="path22"
           style="display:inline;opacity:1;fill:#5bcefa;fill-opacity:1;stroke:none;stroke-width:0.549746;stroke-linecap:square;stroke-opacity:1"
           d="m 100.71633,92.899239 a 9.6040125,9.6040125 0 0 0 6.37739,6.049243 9.3448992,9.3971062 0 0 0 -6.37739,-6.049243 z" /></g><g
         id="g26"
         transform="matrix(0.17920151,0.99509509,-0.97342976,0.14946446,179.4634,12.878334)"
         style="display:inline"><path
           id="path23"
           style="display:inline;opacity:1;fill:#f5a9b8;fill-opacity:1;stroke:none;stroke-width:0.549746;stroke-linecap:square;stroke-opacity:1"
           d="m 98.242582,92.563859 a 9.3448992,9.3971062 0 0 0 -7.060034,3.240112 c 1.274666,7.370809 5.188146,12.134529 11.740372,14.290599 a 9.3448992,9.3971062 0 0 0 4.66431,-8.13335 9.3448992,9.3971062 0 0 0 -9.344648,-9.397361 z" /><path
           id="path24"
           style="display:inline;opacity:1;fill:#ffffff;fill-opacity:1;stroke:none;stroke-width:0.549746;stroke-linecap:square;stroke-opacity:1"
           d="m 98.242582,92.563859 a 9.3448992,9.3971062 0 0 0 -4.266406,1.036113 19.81205,19.81205 0 0 0 11.878864,13.811558 9.3448992,9.3971062 0 0 0 1.73219,-5.45031 9.3448992,9.3971062 0 0 0 -9.344648,-9.397361 z" /><path
           id="path25"
           style="display:inline;opacity:1;fill:#f5a9b8;fill-opacity:1;stroke:none;stroke-width:0.549746;stroke-linecap:square;stroke-opacity:1"
           d="m 98.242582,92.563859 a 9.3448992,9.3971062 0 0 0 -0.484725,0.0124 14.979843,14.979843 0 0 0 9.726543,10.776091 9.3448992,9.3971062 0 0 0 0.10283,-1.39113 9.3448992,9.3971062 0 0 0 -9.344648,-9.397363 z" /><path
           id="path26"
           style="display:inline;opacity:1;fill:#5bcefa;fill-opacity:1;stroke:none;stroke-width:0.549746;stroke-linecap:square;stroke-opacity:1"
           d="m 100.71633,92.899239 a 9.6040125,9.6040125 0 0 0 6.37739,6.049243 9.3448992,9.3971062 0 0 0 -6.37739,-6.049243 z" /></g></g></g></svg>
