<?xml version="1.0" encoding="UTF-8" standalone="no"?>
<svg
   viewBox="0 0 158.90712 74.674164"
   version="1.1"
   id="svg189"
   sodipodi:docname="gdq.svg"
   width="158.90712"
   height="74.674164"
   inkscape:version="1.2.1 (9c6d41e410, 2022-07-14)"
   inkscape:export-filename="gdq.png"
   inkscape:export-xdpi="600"
   inkscape:export-ydpi="600"
   xmlns:inkscape="http://www.inkscape.org/namespaces/inkscape"
   xmlns:sodipodi="http://sodipodi.sourceforge.net/DTD/sodipodi-0.dtd"
   xmlns="http://www.w3.org/2000/svg"
   xmlns:svg="http://www.w3.org/2000/svg">
  <defs
     id="defs193" />
  <sodipodi:namedview
     id="namedview191"
     pagecolor="#ffffff"
     bordercolor="#666666"
     borderopacity="1.0"
     inkscape:showpageshadow="2"
     inkscape:pageopacity="0.0"
     inkscape:pagecheckerboard="0"
     inkscape:deskcolor="#d1d1d1"
     showgrid="false"
     inkscape:zoom="1.8984375"
     inkscape:cx="36.345679"
     inkscape:cy="139.85185"
     inkscape:window-width="1278"
     inkscape:window-height="1008"
     inkscape:window-x="1920"
     inkscape:window-y="128"
     inkscape:window-maximized="0"
     inkscape:current-layer="svg189" />
  <path
     d="m 89.275325,19.5957 h -13.2171 c -2.4715,0 -4.9429,0.7455 -6.8771,2.13 l -7.5219,5.4314 6.1249,7.5613 h 13.5395 c 2.0416,0 3.8684,-1.2779 4.4057,-3.0884 z"
     id="path185"
     style="fill:#ffffff" />
  <path
     d="m 49.409225,19.5957 h -14.3991 c -2.0416,0 -3.8684,1.2779 -4.4057,3.0884 l -3.546,12.0343 h 7.8443 c 8.8114,0 13.3245,-4.3664 13.3245,-4.3664 -6.6623,11.8213 -18.16,11.8213 -18.8048,11.8213 -9.3486,0 -15.0438,-5.7509 -14.1841,-12.9928 0,0 -0.6448,-15.6552 18.3749,-17.9982 0,0 -1.182,1.491 -1.6118,3.8339 h 12.1425 c 2.2565,0 4.1907,-1.3844 4.728,-3.3014 L 52.418025,0 h -16.0109 c -17.5153,0 -30.94731,8.30686 -35.5679,25.3466 -4.19078,15.0162 7.95172,28.9675 22.2433,28.9675 6.0176,0 13.0022,0.213 20.4166,-5.1119 l -1.2894,5.1119 h 12.2499 c 4.8355,0 4.7281,-2.8755 5.3728,-4.7924 l 3.761,-12.7798 z m 89.510905,14.8032 c 0,0 -0.21501,0.213 -0.53801,0.639 -5.695,-8.7328 -7.844,-16.0812 -7.844,-16.0812 -5.69499,3.7274 -9.02599,8.2003 -10.74499,11.0758 -1.182,1.917 -1.29001,4.2599 -0.323,6.2834 C 128.28212,54.8466 150.63212,59 150.63212,59 l 8.275,-3.5144 c -4.943,-3.0885 -9.02699,-6.6029 -12.465,-10.3304 0.215,-0.213 0.429,-0.3195 0.644,-0.5325 5.051,-4.6859 8.48901,-10.7563 10.53101,-17.4657 C 162.02312,12.1408 152.24412,0 135.80412,0 c -12.143,0 -19.12799,3.72744 -26.32699,9.69134 -0.21501,0.10649 -2.901,2.44946 -3.009,2.55596 C 103.03012,5.32491 95.615225,0 78.207425,0 h -16.6557 c -2.0417,0 -3.7609,1.27798 -4.2982,3.19495 l -3.9759,13.52525 5.6952,6.9224 10.7456,-7.5614 1.182,-4.0469 h 8.9188 c 7.7368,0 16.2258,2.556 13.8618,15.4422 -1.3969,7.5614 -7.8443,14.8033 -16.5482,14.8033 h -9.7785 l -2.364,8.4133 c 0,0 -0.4298,2.4495 -2.0417,3.621 h 10.5307 c 12.3574,0 19.1271,-2.982 25.7894,-10.1173 3.653405,6.1768 10.853405,10.1173 20.201395,10.1173 3.654,0 8.167,-0.639 11.498,-1.278 -13.539,-4.1534 -17.408,-14.1643 -18.267,-17.0397 -0.86,-2.4495 -0.86,-5.5379 0.107,-8.8394 2.471,-8.3068 9.993,-15.1227 19.127,-15.1227 9.134,0 13.11,6.7094 10.638,15.1227 -0.644,2.6625 -1.934,5.112 -3.65299,7.2419 z"
     id="path187"
     style="fill:#ffffff" />
  <path
     id="path528"
     style="fill:#ffffff;stroke:none;stroke-width:5.74059;stroke-linejoin:round;paint-order:fill markers stroke"
     d="M 79.453125 53.835938 A 79.45356 10.419096 0 0 0 0 64.255859 A 79.45356 10.419096 0 0 0 79.453125 74.673828 A 79.45356 10.419096 0 0 0 158.90625 64.255859 A 79.45356 10.419096 0 0 0 79.453125 53.835938 z M 116.37695 57.699219 C 119.1896 57.699219 121.3925 58.281036 122.98633 59.443359 C 124.58016 60.605683 125.37695 62.211594 125.37695 64.259766 C 125.37695 66.302295 124.58016 67.904083 122.98633 69.066406 C 121.3925 70.22873 119.1896 70.810547 116.37695 70.810547 C 113.57212 70.810547 111.36727 70.22873 109.76562 69.066406 C 108.17179 67.904083 107.375 66.302295 107.375 64.259766 C 107.375 62.211594 108.17179 60.605683 109.76562 59.443359 C 111.36727 58.281036 113.57212 57.699219 116.37695 57.699219 z M 33.53125 57.927734 L 38.066406 57.927734 L 42.707031 67.255859 L 47.335938 57.927734 L 51.871094 57.927734 L 45.390625 70.564453 L 40.011719 70.564453 L 33.53125 57.927734 z M 56.427734 57.927734 L 60.939453 57.927734 L 60.939453 70.564453 L 56.427734 70.564453 L 56.427734 57.927734 z M 67.59375 57.927734 L 72.351562 57.927734 C 75.00795 57.927734 76.984308 58.067275 78.28125 58.34375 C 79.586005 58.614583 80.703077 59.075956 81.632812 59.730469 C 82.453167 60.300346 83.062479 60.958335 83.460938 61.703125 C 83.859396 62.447915 84.058594 63.292103 84.058594 64.234375 C 84.058594 65.187932 83.859396 66.03863 83.460938 66.789062 C 83.062479 67.533852 82.453167 68.191842 81.632812 68.761719 C 80.695264 69.416231 79.57038 69.881728 78.257812 70.158203 C 76.945245 70.429036 74.976698 70.564453 72.351562 70.564453 L 67.59375 70.564453 L 67.59375 57.927734 z M 89.751953 57.927734 L 101.92773 57.927734 L 101.92773 60.390625 L 94.263672 60.390625 L 94.263672 62.744141 L 101.4707 62.744141 L 101.4707 65.207031 L 94.263672 65.207031 L 94.263672 68.101562 L 102.18555 68.101562 L 102.18555 70.564453 L 89.751953 70.564453 L 89.751953 57.927734 z M 116.37695 60.060547 C 115.00188 60.060547 113.93363 60.428604 113.17578 61.162109 C 112.41793 61.895615 112.03906 62.928172 112.03906 64.259766 C 112.03906 65.585717 112.41793 66.614151 113.17578 67.347656 C 113.93363 68.081161 115.00188 68.449219 116.37695 68.449219 C 117.75984 68.449219 118.83004 68.081161 119.58789 67.347656 C 120.34574 66.614151 120.72461 65.585717 120.72461 64.259766 C 120.72461 62.928172 120.34574 61.895615 119.58789 61.162109 C 118.83004 60.428604 117.75984 60.060547 116.37695 60.060547 z M 72.105469 60.390625 L 72.105469 68.101562 L 73.722656 68.101562 C 75.566502 68.101562 76.972606 67.771483 77.941406 67.111328 C 78.918019 66.451174 79.40625 65.492618 79.40625 64.234375 C 79.40625 62.981774 78.921925 62.027559 77.953125 61.373047 C 76.984325 60.718535 75.574315 60.390625 73.722656 60.390625 L 72.105469 60.390625 z " />
</svg>
